<svg width="18" height="24" viewBox="0 0 18 24" fill="none" xmlns="http://www.w3.org/2000/svg">
<path d="M1.125 0.0546875H16.875C17.1734 0.0546875 17.4595 0.173214 17.6705 0.384192C17.8815 0.595171 18 0.881319 18 1.17969V22.7156C18.0001 22.8161 17.9733 22.9149 17.9223 23.0016C17.8712 23.0883 17.7979 23.1597 17.7099 23.2084C17.6219 23.2571 17.5225 23.2813 17.4219 23.2786C17.3214 23.2758 17.2234 23.2461 17.1382 23.1926L9 18.0884L0.86175 23.1914C0.776664 23.2449 0.678811 23.2746 0.578365 23.2774C0.477919 23.2803 0.378547 23.2561 0.290582 23.2076C0.202617 23.159 0.12927 23.0877 0.0781682 23.0012C0.0270661 22.9147 7.47797e-05 22.816 0 22.7156V1.17969C0 0.881319 0.118527 0.595171 0.329505 0.384192C0.540484 0.173214 0.826631 0.0546875 1.125 0.0546875ZM15.75 2.30469H2.25V19.6657L9 15.4346L15.75 19.6657V2.30469Z" fill="black"/>
</svg>
