<svg width="70" height="70" viewBox="0 0 70 70" fill="none" xmlns="http://www.w3.org/2000/svg">
<circle cx="35" cy="35" r="35" fill="#003974"/>
<path d="M22.3 55V49.85L32.4 39.3C34.4 37.2 35.9333 35.5333 37 34.3C38.1 33.0333 38.8667 31.95 39.3 31.05C39.7333 30.15 39.95 29.2333 39.95 28.3C39.95 26.7333 39.45 25.5 38.45 24.6C37.4833 23.7 36.2333 23.25 34.7 23.25C33.1 23.25 31.7167 23.7167 30.55 24.65C29.3833 25.55 28.5333 26.8833 28 28.65L22.05 26.8C22.45 24.8333 23.2667 23.1333 24.5 21.7C25.7333 20.2333 27.2333 19.1167 29 18.35C30.8 17.55 32.7 17.15 34.7 17.15C37.1 17.15 39.2 17.5833 41 18.45C42.8333 19.3167 44.25 20.5333 45.25 22.1C46.2833 23.6667 46.8 25.5 46.8 27.6C46.8 28.9333 46.55 30.25 46.05 31.55C45.55 32.85 44.8 34.1833 43.8 35.55C42.8 36.8833 41.5 38.3833 39.9 40.05L31.15 49.25H47.3V55H22.3Z" fill="white"/>
</svg>
