<svg width="42" height="42" viewBox="0 0 42 42" fill="none" xmlns="http://www.w3.org/2000/svg">
<circle cx="20.9531" cy="21" r="19.6406" stroke="#FC2828" stroke-width="2.625"/>
<path d="M21 8.67188C20.3922 8.67188 19.8364 9.18841 19.8771 9.79477L20.4386 24.9538C20.4386 25.1028 20.4977 25.2456 20.603 25.3509C20.7083 25.4561 20.8511 25.5153 21 25.5153C21.1489 25.5153 21.2917 25.4561 21.397 25.3509C21.5023 25.2456 21.5614 25.1028 21.5614 24.9538L22.1229 9.79477C22.1636 9.18841 21.6078 8.67188 21 8.67188Z" fill="#FC2828" stroke="#FC2828" stroke-width="1.875" stroke-linecap="round" stroke-linejoin="round"/>
<path d="M21.0001 33.3757C21.6202 33.3757 22.123 32.8729 22.123 32.2528C22.123 31.6326 21.6202 31.1299 21.0001 31.1299C20.3799 31.1299 19.8772 31.6326 19.8772 32.2528C19.8772 32.8729 20.3799 33.3757 21.0001 33.3757Z" fill="#FC2828" stroke="#FC2828" stroke-width="1.875" stroke-linecap="round" stroke-linejoin="round"/>
</svg>
