<svg width="30" height="30" viewBox="0 0 30 30" fill="none" xmlns="http://www.w3.org/2000/svg">
<path d="M14.9998 6.59961V23.3996M19.1998 11.4996C19.1998 9.56761 17.3196 7.99961 14.9998 7.99961C12.68 7.99961 10.7998 9.56761 10.7998 11.4996C10.7998 13.4316 12.68 14.9996 14.9998 14.9996C17.3196 14.9996 19.1998 16.5676 19.1998 18.4996C19.1998 20.4316 17.3196 21.9996 14.9998 21.9996C12.68 21.9996 10.7998 20.4316 10.7998 18.4996" stroke="#161616" stroke-width="2" stroke-linecap="round"/>
<path d="M8 2.87322C10.1273 1.64248 12.5423 0.99623 15 1.00002C22.7322 1.00002 29 7.26782 29 15C29 22.7322 22.7322 29 15 29C7.2678 29 1 22.7322 1 15C1 12.4506 1.6818 10.058 2.8732 8.00002" stroke="#161616" stroke-width="2" stroke-linecap="round"/>
</svg>
