<svg width="35" height="34" viewBox="0 0 35 34" fill="none" xmlns="http://www.w3.org/2000/svg">
<path d="M15.5979 2.3541C16.1966 0.511484 18.8034 0.511479 19.4021 2.3541L22.1025 10.6652C22.3703 11.4892 23.1382 12.0471 24.0047 12.0471H32.7434C34.6808 12.0471 35.4864 14.5263 33.919 15.6652L26.8492 20.8017C26.1482 21.311 25.8549 22.2137 26.1226 23.0377L28.8231 31.3488C29.4218 33.1914 27.3128 34.7236 25.7454 33.5848L18.6756 28.4483C17.9746 27.939 17.0254 27.939 16.3244 28.4483L9.25463 33.5848C7.6872 34.7236 5.57824 33.1914 6.17694 31.3488L8.87737 23.0377C9.14512 22.2137 8.8518 21.311 8.15083 20.8017L1.08103 15.6652C-0.4864 14.5264 0.319148 12.0471 2.25659 12.0471H10.9953C11.8618 12.0471 12.6297 11.4892 12.8975 10.6652L15.5979 2.3541Z" fill="#003974"/>
</svg>
