<svg width="70" height="70" viewBox="0 0 70 70" fill="none" xmlns="http://www.w3.org/2000/svg">
<circle cx="35" cy="35" r="35" fill="#003974"/>
<path d="M33.65 55.6C31.6167 55.6 29.6833 55.2333 27.85 54.5C26.05 53.7333 24.5 52.6667 23.2 51.3C21.9333 49.9 21.0667 48.25 20.6 46.35L26.55 44.25C27.15 45.95 28.0667 47.25 29.3 48.15C30.5333 49.0167 31.9833 49.45 33.65 49.45C34.9833 49.45 36.1333 49.2 37.1 48.7C38.1 48.2 38.8833 47.4833 39.45 46.55C40.0167 45.5833 40.3 44.45 40.3 43.15C40.3 41.85 40.0167 40.75 39.45 39.85C38.9167 38.9167 38.15 38.2 37.15 37.7C36.15 37.2 34.9667 36.95 33.6 36.95C32.9667 36.95 32.3 37.0167 31.6 37.15C30.9333 37.2833 30.3333 37.4833 29.8 37.75L28.25 34.5L37.9 23.5H22.7V17.75H45.55V23.1L35.85 34.45L35.95 31.9C38.1833 31.9333 40.1333 32.4167 41.8 33.35C43.4667 34.2833 44.7667 35.5667 45.7 37.2C46.6333 38.8333 47.1 40.75 47.1 42.95C47.1 45.35 46.5167 47.5167 45.35 49.45C44.1833 51.35 42.5833 52.85 40.55 53.95C38.5167 55.05 36.2167 55.6 33.65 55.6Z" fill="white"/>
</svg>
