<svg width="28" height="33" viewBox="0 0 28 33" fill="none" xmlns="http://www.w3.org/2000/svg">
<path d="M14 0C17.713 0 21.274 1.475 23.8995 4.10051C26.525 6.72601 28 10.287 28 14C28 19.796 23.5822 25.8689 14.9333 32.3556C14.6641 32.5575 14.3366 32.6667 14 32.6667C13.6634 32.6667 13.3359 32.5575 13.0667 32.3556C4.41778 25.8689 0 19.796 0 14C0 10.287 1.475 6.72601 4.1005 4.10051C6.72601 1.475 10.287 0 14 0ZM14 3.11111C11.1121 3.11111 8.34246 4.25833 6.30039 6.30039C4.25833 8.34246 3.11111 11.1121 3.11111 14C3.11111 18.2156 6.40578 23.0782 13.1413 28.476L14 29.1542L14.8587 28.476C21.5942 23.0782 24.8889 18.2156 24.8889 14C24.8889 11.1121 23.7417 8.34246 21.6996 6.30039C19.6575 4.25833 16.8879 3.11111 14 3.11111ZM14 10.8889C14.8251 10.8889 15.6164 11.2167 16.1999 11.8001C16.7833 12.3836 17.1111 13.1749 17.1111 14C17.1111 14.8251 16.7833 15.6164 16.1999 16.1999C15.6164 16.7833 14.8251 17.1111 14 17.1111C13.1749 17.1111 12.3836 16.7833 11.8001 16.1999C11.2167 15.6164 10.8889 14.8251 10.8889 14C10.8889 13.1749 11.2167 12.3836 11.8001 11.8001C12.3836 11.2167 13.1749 10.8889 14 10.8889Z" fill="#161616"/>
</svg>
